# xmcd CD database file
#
# Track frame offsets:
#	150
#	14297
#	28400
#	42812
#	55137
#	69490
#	80750
#	93422
#	107860
#	122232
#	137435
#	150920
#	164325
#	180107
#	195757
#	207327
#	219857
#	234152
#	249715
#
# Disc length: 3486 seconds
#
# Revision: 0
# Processed by: cddbd v1.4PL0 Copyright (c) Steve Scherf et al.
# Submitted via: CDex 1.50Beta7
#
DISCID=f10d9c13
DTITLE=Mats Rådberg and Rankarna - Country Classics disc 3 - Country Favoriter
DYEAR=1995
DGENRE=Country
TTITLE0=Oickin' Up The Pieces
TTITLE1=Oh, Lonesome Me
TTITLE2=Early Morning Rain
TTITLE3=Take Me To The Country
TTITLE4=You Lay A Lotta Love On Me
TTITLE5=Honky Tonky Man
TTITLE6=Foolhearted Memory
TTITLE7=Tonight My Solitaire Turns Into Gin
TTITLE8=Mississippi  (Roll On Forever)
TTITLE9=Have You Loved Your Woman Today?
TTITLE10=Chicken Truck
TTITLE11=Makes Me Wonder  (If I Ever Said Goodbye)
TTITLE12=Betty's Bein' Bad
TTITLE13=Angel Of Mercy
TTITLE14=Bright Lights And Country Music
TTITLE15=Too Soon To Know
TTITLE16=Win Or Lose
TTITLE17=If Tomorrow Never Comes
TTITLE18=Not Counting You
EXTD=YEAR: 1995
EXTT0=
EXTT1=
EXTT2=
EXTT3=
EXTT4=
EXTT5=
EXTT6=
EXTT7=
EXTT8=
EXTT9=
EXTT10=
EXTT11=
EXTT12=
EXTT13=
EXTT14=
EXTT15=
EXTT16=
EXTT17=
EXTT18=
PLAYORDER=
